<svg width="32" height="32" viewBox="0 0 32 32" fill="none" xmlns="http://www.w3.org/2000/svg">
<rect x="0.5" y="0.5" width="31" height="31" rx="3.5" stroke="#272727"/>
<path d="M15.8334 7C15.4277 7 15.1159 7.3594 15.1732 7.76107L15.2676 8.42122C12.4513 8.74822 11.1309 10.2 11.1309 11.6667C11.1309 16.5823 9.74925 19.2124 9.53192 19.5964L23.2318 19.1243C22.7691 18.1113 21.8692 15.632 21.8692 11.6667C21.8692 10.1997 20.5488 8.74822 17.7324 8.42122L17.8268 7.76107C17.8842 7.3594 17.5724 7 17.1667 7H15.8334ZM8.50002 20.3333C8.50002 20.3333 7.16669 20.6667 7.16669 23.3333H14.5156C14.6825 24.2797 15.5056 25 16.5 25C17.4944 25 18.3175 24.2797 18.4844 23.3333H25.8334C25.8334 20.6667 24.5 20.3333 24.5 20.3333H8.50002Z" fill="#757575"/>
</svg>
