<svg width="49" height="48" viewBox="0 0 49 48" fill="none" xmlns="http://www.w3.org/2000/svg">
<rect x="1" width="47" height="48" rx="23.5" fill="#333333"/>
<path fill-rule="evenodd" clip-rule="evenodd" d="M24.9231 4.00081C25.7884 3.99439 26.5513 4.02641 27.0385 4.09052C27.4487 4.14181 28.0513 4.23161 28.3654 4.28931C28.6795 4.3406 29.141 4.43035 29.391 4.48164C29.641 4.53934 29.968 4.61626 30.1282 4.66114C30.2885 4.70602 30.5897 4.79575 30.8013 4.85986C31.0128 4.91756 31.2564 5.00092 31.3462 5.03298C31.4359 5.07144 31.5962 5.12276 31.6987 5.15481C31.8013 5.18046 32.0192 5.25095 32.1795 5.30865C32.3397 5.36635 32.6282 5.48817 32.8205 5.57793C33.0128 5.66768 33.4615 5.87928 33.8141 6.05238C34.1667 6.22548 34.6026 6.44988 34.7756 6.54605C34.9551 6.64221 35.1859 6.7768 35.2885 6.84732C35.391 6.91144 35.7564 7.14869 36.0897 7.36667C36.4231 7.58464 36.9166 7.93723 37.1859 8.14239C37.4551 8.34755 38.0064 8.80277 38.4038 9.16179C38.8077 9.5144 39.218 9.90548 39.3205 10.0273C39.4231 10.1491 39.7308 10.4889 40 10.7902C40.2756 11.0915 40.6859 11.5788 40.9103 11.8801C41.141 12.1814 41.4936 12.6879 41.7051 13.002C41.9102 13.3162 42.109 13.6303 42.1474 13.688C42.1795 13.7457 42.2564 13.874 42.3141 13.9765C42.3703 14.0702 42.5601 14.4373 42.7476 14.7997L42.7628 14.8292C42.9551 15.2011 43.1859 15.6755 43.2756 15.8871C43.3718 16.0986 43.5385 16.4897 43.6475 16.7526C43.7564 17.0154 43.8462 17.2719 43.8462 17.3168C43.8462 17.3553 43.8847 17.4899 43.9359 17.6053C43.9808 17.7143 44.0641 17.9579 44.1154 18.131C44.1731 18.3105 44.2564 18.6118 44.3141 18.8041C44.3654 18.9965 44.4551 19.3555 44.5064 19.6055C44.5641 19.8556 44.6539 20.3172 44.7052 20.6313C44.7564 20.9455 44.8462 21.5674 44.9038 22.0097C44.9615 22.4713 45 23.3112 45 23.9972C45 24.6639 44.9552 25.5487 44.8975 26.0167C44.8462 26.4719 44.7564 27.0809 44.7052 27.363C44.6539 27.6451 44.5641 28.0939 44.5064 28.3568C44.4551 28.6196 44.3654 28.9851 44.3205 29.1582C44.2693 29.3377 44.1795 29.639 44.1282 29.8313C44.0705 30.0237 43.9872 30.2802 43.9359 30.3956C43.8846 30.5046 43.8462 30.6392 43.8462 30.6841C43.8461 30.7226 43.7564 30.979 43.6475 31.2418C43.5385 31.5046 43.4103 31.8124 43.3654 31.915C43.3141 32.0175 43.1282 32.4086 42.9551 32.7805C42.7756 33.1523 42.5449 33.6011 42.4487 33.7742C42.3526 33.9537 42.218 34.1845 42.1474 34.2871C42.0833 34.3897 41.8718 34.723 41.6731 35.0244C41.4807 35.3257 41.1346 35.8129 40.9038 36.1143C40.6731 36.4156 40.1731 37.0054 39.7949 37.4286C39.4167 37.8517 38.8141 38.4543 38.4552 38.7749C38.0962 39.0955 37.7436 39.4032 37.6666 39.4737C37.5961 39.5379 37.3141 39.7559 37.0513 39.9546C36.7885 40.1533 36.3269 40.4803 36.0256 40.6726C35.7244 40.8714 35.391 41.083 35.2885 41.1535C35.1859 41.2176 34.9551 41.3522 34.7756 41.4484C34.6026 41.5445 34.1667 41.7689 33.8141 41.942C33.4615 42.1151 33.0128 42.3267 32.8205 42.4165C32.6282 42.5062 32.3397 42.628 32.1795 42.6857C32.0192 42.7434 31.8013 42.814 31.6987 42.8396C31.5962 42.8717 31.4359 42.923 31.3462 42.9614C31.2564 42.9935 31.0128 43.0768 30.8013 43.1345C30.5897 43.1986 30.2885 43.2884 30.1282 43.3333C29.9679 43.3782 29.6218 43.4615 29.359 43.5128C29.0962 43.5641 28.6474 43.6538 28.3654 43.7051C28.0833 43.7564 27.4744 43.8462 27.0192 43.8974C26.5513 43.9551 25.6667 44 25 44C24.3141 44 23.4744 43.9615 23.0128 43.9038C22.5705 43.8461 21.9487 43.7564 21.6346 43.7051C21.3205 43.6538 20.859 43.5641 20.609 43.5128C20.359 43.4551 20.0321 43.3782 19.8718 43.3333C19.7115 43.2884 19.4103 43.1986 19.1987 43.1345C18.9872 43.0768 18.7179 42.9871 18.609 42.9358C18.4936 42.8845 18.359 42.846 18.3205 42.846C18.2756 42.846 18.0192 42.7562 17.7564 42.6473C17.4936 42.5383 17.1603 42.3972 17.0192 42.3331C16.8782 42.2754 16.5 42.0959 16.1859 41.942C15.8718 41.7882 15.3974 41.5382 15.1474 41.3907C14.891 41.2368 14.6667 41.115 14.6474 41.115C14.6282 41.115 14.2884 40.8906 13.8974 40.6214C13.5 40.3521 12.9872 39.9866 12.7564 39.8135C12.5256 39.6404 12.0577 39.2365 11.7051 38.916C11.359 38.589 11.0384 38.3069 11 38.2877C10.9614 38.2619 10.6282 37.903 10.2564 37.4863C9.88462 37.0631 9.57051 36.7105 9.55128 36.6913C9.532 36.672 9.37179 36.4733 9.19233 36.2425C9.01285 36.0117 8.65387 35.5052 8.39105 35.1205C8.12823 34.7359 7.89104 34.3704 7.8654 34.3191C7.83974 34.2678 7.71794 34.0499 7.59615 33.8383C7.47436 33.6267 7.22438 33.1523 7.0449 32.7805C6.86541 32.4086 6.67949 32.0175 6.63462 31.915C6.58974 31.8124 6.46151 31.5046 6.35254 31.2418C6.2436 30.979 6.15389 30.7226 6.15385 30.6841C6.15385 30.6392 6.11536 30.5046 6.06408 30.3956C6.01921 30.2802 5.93588 30.0429 5.8846 29.8634C5.82691 29.6903 5.7436 29.3825 5.68591 29.1902C5.63463 28.9979 5.54488 28.6389 5.4936 28.3888C5.43591 28.1388 5.34613 27.6964 5.29485 27.3951C5.24356 27.0938 5.15384 26.4911 5.09615 26.0487C5.03846 25.5807 5 24.728 5 23.9972C5 23.2471 5.03846 22.4393 5.09615 21.9777C5.14744 21.5545 5.23716 20.9326 5.29485 20.5993C5.34613 20.2659 5.4359 19.8492 5.48077 19.6696C5.53205 19.4965 5.57692 19.2914 5.57692 19.2209C5.57693 19.1503 5.6218 18.9644 5.67308 18.8041C5.72436 18.6439 5.82054 18.3297 5.89105 18.0989C5.96156 17.8681 6.05126 17.5796 6.09613 17.4578C6.141 17.336 6.25643 17.0154 6.35899 16.7526C6.46155 16.4897 6.58974 16.182 6.63462 16.0794C6.68591 15.9704 6.86542 15.5857 7.0449 15.2139C7.22438 14.842 7.46795 14.3676 7.59615 14.156C7.71795 13.9445 7.83976 13.7265 7.8654 13.6752C7.89109 13.6238 8.12827 13.2648 8.39105 12.8738C8.65387 12.4827 9.00003 11.9955 9.16028 11.7775C9.32054 11.566 9.65385 11.1621 9.90385 10.88C10.1474 10.6043 10.5833 10.1427 10.8654 9.86057C11.1474 9.57848 11.5962 9.15536 11.859 8.92456C12.1218 8.68736 12.5256 8.354 12.7564 8.1809C12.9872 8.00779 13.4038 7.71283 13.6859 7.5205C13.9679 7.32817 14.2115 7.15509 14.2308 7.12944C14.25 7.11021 14.3077 7.07173 14.359 7.05249C14.4103 7.02685 14.5385 6.94994 14.6474 6.88583C14.7564 6.81531 14.9423 6.70629 15.0641 6.63577C15.1859 6.57165 15.5641 6.37292 15.8974 6.19982C16.2372 6.02672 16.6859 5.80874 16.891 5.71898C17.1026 5.62282 17.4936 5.46256 17.7564 5.35998C18.0192 5.251 18.3397 5.13558 18.4615 5.0907C18.5833 5.04583 18.8718 4.95603 19.1026 4.89192C19.3333 4.8214 19.6602 4.71882 19.8269 4.66753C20 4.61624 20.1859 4.57137 20.2436 4.57136C20.3013 4.57136 20.4936 4.52648 20.6731 4.47519C20.8462 4.43032 21.2692 4.3406 21.6026 4.28931C21.9359 4.23161 22.5128 4.14826 22.8846 4.09697C23.2628 4.04568 24.1602 4.00722 24.9231 4.00081ZM35.5577 16.8552C34.5257 15.8167 34.3013 15.6179 34.1923 15.6563C34.1218 15.6819 33.7564 16.0346 33.3911 16.4321C33.0257 16.8296 32.6795 17.2078 32.6282 17.2591C32.5705 17.3168 32.1987 17.7207 31.7949 18.1631C31.391 18.599 30.9872 19.035 30.8974 19.1311C30.8077 19.2209 30.4167 19.644 30.0257 20.0608C29.6346 20.4775 29.1474 21.0096 28.9423 21.2404C28.7372 21.4712 28.3782 21.8559 28.1474 22.0995C27.9167 22.3431 27.6923 22.5739 27.6603 22.6124C27.6218 22.6509 27.25 23.0612 26.8269 23.5164C26.4103 23.9716 25.8782 24.5486 25.6474 24.7922C25.4167 25.0358 25.1923 25.2666 25.1603 25.3051C25.1218 25.3435 24.75 25.7539 24.3269 26.2091C23.9103 26.6643 23.3589 27.2541 23.1154 27.5105C22.8654 27.767 22.641 27.9722 22.6154 27.9722C22.583 27.9719 21.3908 26.9269 19.9551 25.6577C18.5128 24.3819 17.2308 23.2407 17.1026 23.1253C16.9679 23.0035 16.8397 22.9073 16.8141 22.9073C16.782 22.9074 16.6346 23.042 16.4744 23.2086C16.3141 23.3753 15.9872 23.7408 15.7436 24.0293C15.5 24.3114 15.1923 24.6576 15.0513 24.7986C14.9167 24.9396 14.8077 25.0935 14.8077 25.132C14.8077 25.1768 14.9167 25.3051 15.0513 25.4205C15.1795 25.5295 15.5 25.8116 15.7628 26.0424C16.0257 26.2732 16.2693 26.4976 16.3077 26.536C16.3462 26.5746 16.6218 26.8182 16.9231 27.0746C17.2244 27.331 17.6154 27.6772 17.7885 27.8439C17.968 28.0106 18.3526 28.3568 18.6538 28.6197C18.9551 28.8761 19.3141 29.1967 19.4487 29.3185C19.5834 29.4403 19.7308 29.5749 19.7693 29.6134C19.8078 29.6455 20.0834 29.8891 20.3846 30.152C20.6859 30.4148 21.0769 30.761 21.25 30.9277C21.4295 31.088 21.8205 31.447 22.1346 31.7162C22.4422 31.9855 22.7242 32.2034 22.7628 32.2035C22.8013 32.2035 25.9552 29.0812 29.7693 25.2602C33.5833 21.4456 36.7243 18.272 36.75 18.2079C36.782 18.1245 36.5128 17.8168 35.5577 16.8552Z" fill="white"/>
<path fill-rule="evenodd" clip-rule="evenodd" d="M24.9231 4.00081C25.7884 3.99439 26.5513 4.02641 27.0385 4.09052C27.4487 4.14181 28.0513 4.23161 28.3654 4.28931C28.6795 4.3406 29.141 4.43035 29.391 4.48164C29.641 4.53934 29.968 4.61626 30.1282 4.66114C30.2885 4.70602 30.5897 4.79575 30.8013 4.85986C31.0128 4.91756 31.2564 5.00092 31.3462 5.03298C31.4359 5.07144 31.5962 5.12276 31.6987 5.15481C31.8013 5.18046 32.0192 5.25095 32.1795 5.30865C32.3397 5.36635 32.6282 5.48817 32.8205 5.57793C33.0128 5.66768 33.4615 5.87928 33.8141 6.05238C34.1667 6.22548 34.6026 6.44988 34.7756 6.54605C34.9551 6.64221 35.1859 6.7768 35.2885 6.84732C35.391 6.91144 35.7564 7.14869 36.0897 7.36667C36.4231 7.58464 36.9166 7.93723 37.1859 8.14239C37.4551 8.34755 38.0064 8.80277 38.4038 9.16179C38.8077 9.5144 39.218 9.90548 39.3205 10.0273C39.4231 10.1491 39.7308 10.4889 40 10.7902C40.2756 11.0915 40.6859 11.5788 40.9103 11.8801C41.141 12.1814 41.4936 12.6879 41.7051 13.002C41.9102 13.3162 42.109 13.6303 42.1474 13.688C42.1795 13.7457 42.2564 13.874 42.3141 13.9765C42.3703 14.0702 42.5601 14.4373 42.7476 14.7997L42.7628 14.8292C42.9551 15.2011 43.1859 15.6755 43.2756 15.8871C43.3718 16.0986 43.5385 16.4897 43.6475 16.7526C43.7564 17.0154 43.8462 17.2719 43.8462 17.3168C43.8462 17.3553 43.8847 17.4899 43.9359 17.6053C43.9808 17.7143 44.0641 17.9579 44.1154 18.131C44.1731 18.3105 44.2564 18.6118 44.3141 18.8041C44.3654 18.9965 44.4551 19.3555 44.5064 19.6055C44.5641 19.8556 44.6539 20.3172 44.7052 20.6313C44.7564 20.9455 44.8462 21.5674 44.9038 22.0097C44.9615 22.4713 45 23.3112 45 23.9972C45 24.6639 44.9552 25.5487 44.8975 26.0167C44.8462 26.4719 44.7564 27.0809 44.7052 27.363C44.6539 27.6451 44.5641 28.0939 44.5064 28.3568C44.4551 28.6196 44.3654 28.9851 44.3205 29.1582C44.2693 29.3377 44.1795 29.639 44.1282 29.8313C44.0705 30.0237 43.9872 30.2802 43.9359 30.3956C43.8846 30.5046 43.8462 30.6392 43.8462 30.6841C43.8461 30.7226 43.7564 30.979 43.6475 31.2418C43.5385 31.5046 43.4103 31.8124 43.3654 31.915C43.3141 32.0175 43.1282 32.4086 42.9551 32.7805C42.7756 33.1523 42.5449 33.6011 42.4487 33.7742C42.3526 33.9537 42.218 34.1845 42.1474 34.2871C42.0833 34.3897 41.8718 34.723 41.6731 35.0244C41.4807 35.3257 41.1346 35.8129 40.9038 36.1143C40.6731 36.4156 40.1731 37.0054 39.7949 37.4286C39.4167 37.8517 38.8141 38.4543 38.4552 38.7749C38.0962 39.0955 37.7436 39.4032 37.6666 39.4737C37.5961 39.5379 37.3141 39.7559 37.0513 39.9546C36.7885 40.1533 36.3269 40.4803 36.0256 40.6726C35.7244 40.8714 35.391 41.083 35.2885 41.1535C35.1859 41.2176 34.9551 41.3522 34.7756 41.4484C34.6026 41.5445 34.1667 41.7689 33.8141 41.942C33.4615 42.1151 33.0128 42.3267 32.8205 42.4165C32.6282 42.5062 32.3397 42.628 32.1795 42.6857C32.0192 42.7434 31.8013 42.814 31.6987 42.8396C31.5962 42.8717 31.4359 42.923 31.3462 42.9614C31.2564 42.9935 31.0128 43.0768 30.8013 43.1345C30.5897 43.1986 30.2885 43.2884 30.1282 43.3333C29.9679 43.3782 29.6218 43.4615 29.359 43.5128C29.0962 43.5641 28.6474 43.6538 28.3654 43.7051C28.0833 43.7564 27.4744 43.8462 27.0192 43.8974C26.5513 43.9551 25.6667 44 25 44C24.3141 44 23.4744 43.9615 23.0128 43.9038C22.5705 43.8461 21.9487 43.7564 21.6346 43.7051C21.3205 43.6538 20.859 43.5641 20.609 43.5128C20.359 43.4551 20.0321 43.3782 19.8718 43.3333C19.7115 43.2884 19.4103 43.1986 19.1987 43.1345C18.9872 43.0768 18.7179 42.9871 18.609 42.9358C18.4936 42.8845 18.359 42.846 18.3205 42.846C18.2756 42.846 18.0192 42.7562 17.7564 42.6473C17.4936 42.5383 17.1603 42.3972 17.0192 42.3331C16.8782 42.2754 16.5 42.0959 16.1859 41.942C15.8718 41.7882 15.3974 41.5382 15.1474 41.3907C14.891 41.2368 14.6667 41.115 14.6474 41.115C14.6282 41.115 14.2884 40.8906 13.8974 40.6214C13.5 40.3521 12.9872 39.9866 12.7564 39.8135C12.5256 39.6404 12.0577 39.2365 11.7051 38.916C11.359 38.589 11.0384 38.3069 11 38.2877C10.9614 38.2619 10.6282 37.903 10.2564 37.4863C9.88462 37.0631 9.57051 36.7105 9.55128 36.6913C9.532 36.672 9.37179 36.4733 9.19233 36.2425C9.01285 36.0117 8.65387 35.5052 8.39105 35.1205C8.12823 34.7359 7.89104 34.3704 7.8654 34.3191C7.83974 34.2678 7.71794 34.0499 7.59615 33.8383C7.47436 33.6267 7.22438 33.1523 7.0449 32.7805C6.86541 32.4086 6.67949 32.0175 6.63462 31.915C6.58974 31.8124 6.46151 31.5046 6.35254 31.2418C6.2436 30.979 6.15389 30.7226 6.15385 30.6841C6.15385 30.6392 6.11536 30.5046 6.06408 30.3956C6.01921 30.2802 5.93588 30.0429 5.8846 29.8634C5.82691 29.6903 5.7436 29.3825 5.68591 29.1902C5.63463 28.9979 5.54488 28.6389 5.4936 28.3888C5.43591 28.1388 5.34613 27.6964 5.29485 27.3951C5.24356 27.0938 5.15384 26.4911 5.09615 26.0487C5.03846 25.5807 5 24.728 5 23.9972C5 23.2471 5.03846 22.4393 5.09615 21.9777C5.14744 21.5545 5.23716 20.9326 5.29485 20.5993C5.34613 20.2659 5.4359 19.8492 5.48077 19.6696C5.53205 19.4965 5.57692 19.2914 5.57692 19.2209C5.57693 19.1503 5.6218 18.9644 5.67308 18.8041C5.72436 18.6439 5.82054 18.3297 5.89105 18.0989C5.96156 17.8681 6.05126 17.5796 6.09613 17.4578C6.141 17.336 6.25643 17.0154 6.35899 16.7526C6.46155 16.4897 6.58974 16.182 6.63462 16.0794C6.68591 15.9704 6.86542 15.5857 7.0449 15.2139C7.22438 14.842 7.46795 14.3676 7.59615 14.156C7.71795 13.9445 7.83976 13.7265 7.8654 13.6752C7.89109 13.6238 8.12827 13.2648 8.39105 12.8738C8.65387 12.4827 9.00003 11.9955 9.16028 11.7775C9.32054 11.566 9.65385 11.1621 9.90385 10.88C10.1474 10.6043 10.5833 10.1427 10.8654 9.86057C11.1474 9.57848 11.5962 9.15536 11.859 8.92456C12.1218 8.68736 12.5256 8.354 12.7564 8.1809C12.9872 8.00779 13.4038 7.71283 13.6859 7.5205C13.9679 7.32817 14.2115 7.15509 14.2308 7.12944C14.25 7.11021 14.3077 7.07173 14.359 7.05249C14.4103 7.02685 14.5385 6.94994 14.6474 6.88583C14.7564 6.81531 14.9423 6.70629 15.0641 6.63577C15.1859 6.57165 15.5641 6.37292 15.8974 6.19982C16.2372 6.02672 16.6859 5.80874 16.891 5.71898C17.1026 5.62282 17.4936 5.46256 17.7564 5.35998C18.0192 5.251 18.3397 5.13558 18.4615 5.0907C18.5833 5.04583 18.8718 4.95603 19.1026 4.89192C19.3333 4.8214 19.6602 4.71882 19.8269 4.66753C20 4.61624 20.1859 4.57137 20.2436 4.57136C20.3013 4.57136 20.4936 4.52648 20.6731 4.47519C20.8462 4.43032 21.2692 4.3406 21.6026 4.28931C21.9359 4.23161 22.5128 4.14826 22.8846 4.09697C23.2628 4.04568 24.1602 4.00722 24.9231 4.00081ZM35.5577 16.8552C34.5257 15.8167 34.3013 15.6179 34.1923 15.6563C34.1218 15.6819 33.7564 16.0346 33.3911 16.4321C33.0257 16.8296 32.6795 17.2078 32.6282 17.2591C32.5705 17.3168 32.1987 17.7207 31.7949 18.1631C31.391 18.599 30.9872 19.035 30.8974 19.1311C30.8077 19.2209 30.4167 19.644 30.0257 20.0608C29.6346 20.4775 29.1474 21.0096 28.9423 21.2404C28.7372 21.4712 28.3782 21.8559 28.1474 22.0995C27.9167 22.3431 27.6923 22.5739 27.6603 22.6124C27.6218 22.6509 27.25 23.0612 26.8269 23.5164C26.4103 23.9716 25.8782 24.5486 25.6474 24.7922C25.4167 25.0358 25.1923 25.2666 25.1603 25.3051C25.1218 25.3435 24.75 25.7539 24.3269 26.2091C23.9103 26.6643 23.3589 27.2541 23.1154 27.5105C22.8654 27.767 22.641 27.9722 22.6154 27.9722C22.583 27.9719 21.3908 26.9269 19.9551 25.6577C18.5128 24.3819 17.2308 23.2407 17.1026 23.1253C16.9679 23.0035 16.8397 22.9073 16.8141 22.9073C16.782 22.9074 16.6346 23.042 16.4744 23.2086C16.3141 23.3753 15.9872 23.7408 15.7436 24.0293C15.5 24.3114 15.1923 24.6576 15.0513 24.7986C14.9167 24.9396 14.8077 25.0935 14.8077 25.132C14.8077 25.1768 14.9167 25.3051 15.0513 25.4205C15.1795 25.5295 15.5 25.8116 15.7628 26.0424C16.0257 26.2732 16.2693 26.4976 16.3077 26.536C16.3462 26.5746 16.6218 26.8182 16.9231 27.0746C17.2244 27.331 17.6154 27.6772 17.7885 27.8439C17.968 28.0106 18.3526 28.3568 18.6538 28.6197C18.9551 28.8761 19.3141 29.1967 19.4487 29.3185C19.5834 29.4403 19.7308 29.5749 19.7693 29.6134C19.8078 29.6455 20.0834 29.8891 20.3846 30.152C20.6859 30.4148 21.0769 30.761 21.25 30.9277C21.4295 31.088 21.8205 31.447 22.1346 31.7162C22.4422 31.9855 22.7242 32.2034 22.7628 32.2035C22.8013 32.2035 25.9552 29.0812 29.7693 25.2602C33.5833 21.4456 36.7243 18.272 36.75 18.2079C36.782 18.1245 36.5128 17.8168 35.5577 16.8552Z" fill="url(#paint0_linear_514_5886)"/>
<defs>
<linearGradient id="paint0_linear_514_5886" x1="25.0222" y1="4.53134" x2="25.0222" y2="43.4444" gradientUnits="userSpaceOnUse">
<stop stop-color="#7B7B7B"/>
<stop offset="0.316962" stop-color="#EBEBEB"/>
<stop offset="0.510728" stop-color="#7B7B7B"/>
<stop offset="1" stop-color="#EBEBEB"/>
</linearGradient>
</defs>
</svg>
