<svg width="16" height="17" viewBox="0 0 16 17" fill="none" xmlns="http://www.w3.org/2000/svg">
<g clip-path="url(#clip0_515_10311)">
<path fill-rule="evenodd" clip-rule="evenodd" d="M7.96923 0.500322C8.31538 0.497757 8.62051 0.51059 8.81538 0.536234C8.97948 0.55675 9.22051 0.592642 9.34615 0.615723C9.47179 0.636238 9.65641 0.672141 9.75641 0.692656C9.85641 0.715736 9.98718 0.746505 10.0513 0.764456C10.1154 0.782407 10.2359 0.818325 10.3205 0.84397C10.4051 0.86705 10.5026 0.900393 10.5385 0.913215C10.5744 0.928601 10.6385 0.949103 10.6795 0.961925C10.7205 0.972183 10.8077 1.0004 10.8718 1.02348C10.9359 1.04656 11.0513 1.09529 11.1282 1.13119C11.2051 1.1671 11.3846 1.25171 11.5256 1.32095C11.6667 1.39019 11.841 1.47995 11.9103 1.51842C11.9821 1.55688 12.0744 1.61074 12.1154 1.63895C12.1564 1.6646 12.3026 1.75947 12.4359 1.84666C12.5692 1.93385 12.7667 2.07492 12.8743 2.15698C12.982 2.23904 13.2 2.42111 13.359 2.56216C13.5179 2.7032 13.6615 2.83655 13.6769 2.85963C13.6923 2.88271 13.8154 3.02119 13.9539 3.16736C14.0897 3.31353 14.2744 3.53152 14.3641 3.65205C14.4564 3.77258 14.5974 3.97518 14.682 4.10083C14.7641 4.22649 14.8436 4.35216 14.859 4.37524C14.8718 4.39832 14.9026 4.44961 14.9256 4.49064C14.9481 4.52809 15.0241 4.67492 15.099 4.81991L15.1051 4.83171C15.182 4.98044 15.2743 5.17021 15.3102 5.25484C15.3487 5.33947 15.4154 5.4959 15.459 5.60104C15.5026 5.70618 15.5385 5.80877 15.5385 5.82416C15.5385 5.84212 15.5539 5.89597 15.5744 5.93956C15.5923 5.98572 15.6256 6.0806 15.6462 6.1524C15.6692 6.22164 15.7026 6.34474 15.7256 6.42167C15.7461 6.4986 15.782 6.64222 15.8026 6.74223C15.8256 6.84224 15.8615 7.02688 15.8821 7.15254C15.9026 7.2782 15.9385 7.52696 15.9615 7.7039C15.9846 7.88854 16 8.22449 16 8.49888C16 8.76559 15.9821 9.11948 15.959 9.30669C15.9385 9.48876 15.9026 9.73239 15.8821 9.84522C15.8615 9.95806 15.8257 10.1376 15.8051 10.2427C15.7846 10.3479 15.7513 10.4863 15.7333 10.5505C15.7154 10.6146 15.6795 10.7351 15.6538 10.8197C15.6308 10.9043 15.5949 11.0121 15.5744 11.0557C15.5539 11.1018 15.5385 11.1557 15.5385 11.1711C15.5384 11.189 15.5026 11.2916 15.459 11.3967C15.4154 11.5019 15.3641 11.625 15.3462 11.666C15.3256 11.707 15.2513 11.8635 15.182 12.0122C15.1102 12.1609 15.0128 12.3481 14.9667 12.4276C14.9231 12.5071 14.8384 12.6456 14.7846 12.7354C14.7282 12.8251 14.6513 12.9405 14.6103 12.9918C14.5718 13.0457 14.5385 13.0944 14.5385 13.1021C14.5384 13.1098 14.4436 13.238 14.3282 13.3893C14.2103 13.5406 14.0231 13.7612 13.9103 13.8791C13.7975 13.9996 13.7026 14.1022 13.7 14.1125C13.6974 14.1202 13.5692 14.2407 13.4179 14.3766C13.2667 14.5125 13.1128 14.6485 13.0769 14.6792C13.041 14.71 12.9256 14.8023 12.8205 14.8818C12.7154 14.9613 12.5308 15.0921 12.4103 15.169C12.2897 15.2485 12.1564 15.3332 12.1154 15.3614C12.0744 15.387 11.9821 15.4409 11.9103 15.4794C11.841 15.5178 11.6667 15.6076 11.5256 15.6768C11.3846 15.746 11.2051 15.8307 11.1282 15.8666C11.0513 15.9025 10.9359 15.9512 10.8718 15.9743C10.8077 15.9974 10.7205 16.0256 10.6795 16.0358C10.6385 16.0486 10.5744 16.0692 10.5385 16.0846C10.5026 16.0974 10.4051 16.1307 10.3205 16.1538C10.2359 16.1794 10.1154 16.2153 10.0513 16.2333C9.98718 16.2512 9.84872 16.2846 9.74359 16.3051C9.63846 16.3256 9.45897 16.3615 9.34615 16.382C9.23333 16.4025 8.98974 16.4384 8.80769 16.459C8.62051 16.482 8.26667 16.5 8 16.5C7.72564 16.5 7.38974 16.4846 7.20513 16.4615C7.02821 16.4385 6.77949 16.4025 6.65385 16.382C6.52821 16.3615 6.34359 16.3256 6.24359 16.3051C6.14359 16.282 6.01282 16.2512 5.94872 16.2333C5.88462 16.2153 5.7641 16.1794 5.67949 16.1538C5.59487 16.1307 5.48717 16.0948 5.44358 16.0743C5.39743 16.0538 5.34358 16.0384 5.3282 16.0384C5.31024 16.0384 5.20768 16.0025 5.10256 15.9589C4.99744 15.9153 4.8641 15.8589 4.80769 15.8332C4.75128 15.8102 4.6 15.7383 4.47436 15.6768C4.34872 15.6152 4.15897 15.5152 4.05897 15.4563C3.95641 15.3947 3.86667 15.346 3.85897 15.346C3.85128 15.346 3.71538 15.2562 3.55897 15.1485C3.4 15.0408 3.19487 14.8947 3.10256 14.8254C3.01026 14.7562 2.81537 14.5895 2.66922 14.4536C2.52307 14.3151 2.39486 14.2022 2.38717 14.1997C2.37938 14.197 2.25122 14.0586 2.10256 13.8919C1.95387 13.7253 1.82056 13.5766 1.80514 13.5637C1.78975 13.5509 1.72564 13.4688 1.66153 13.3842C1.59743 13.2996 1.45897 13.1021 1.35384 12.9482C1.24872 12.7944 1.15643 12.6482 1.14616 12.6277C1.1359 12.6071 1.08718 12.52 1.03846 12.4353C0.989744 12.3507 0.889753 12.1609 0.817959 12.0122C0.746166 11.8635 0.671798 11.707 0.653846 11.666C0.635897 11.625 0.584605 11.5019 0.541016 11.3967C0.497434 11.2916 0.461552 11.189 0.461538 11.1711C0.461538 11.1557 0.446143 11.1018 0.425631 11.0557C0.407683 11.0121 0.374354 10.9146 0.353841 10.8454C0.330765 10.7736 0.297441 10.653 0.274364 10.5761C0.253852 10.4992 0.217954 10.3556 0.197441 10.2555C0.174364 10.1555 0.138452 9.97858 0.117939 9.85805C0.0974261 9.73752 0.0615385 9.49646 0.0384615 9.31951C0.0153847 9.13231 1.57978e-07 8.79123 0 8.49888C0 8.19884 0.0153849 7.87572 0.0384615 7.69108C0.058974 7.52183 0.0948617 7.27307 0.117939 7.13972C0.138451 7.00637 0.174359 6.83712 0.192308 6.76787C0.212819 6.69607 0.230767 6.61657 0.230769 6.58836C0.230769 6.56015 0.248719 6.48578 0.269231 6.42167C0.289743 6.35756 0.328215 6.2319 0.35642 6.13958C0.384624 6.04726 0.420502 5.93186 0.438452 5.88313C0.4564 5.83441 0.502569 5.70619 0.543595 5.60104C0.584619 5.4959 0.635896 5.37537 0.653846 5.33177C0.674359 5.28818 0.746164 5.13431 0.817959 4.98557C0.889753 4.83684 0.987179 4.64707 1.03846 4.56244C1.08718 4.47781 1.1359 4.39062 1.14616 4.3701C1.15642 4.34959 1.25129 4.20598 1.35642 4.04954C1.46155 3.89311 1.60001 3.6982 1.66411 3.61101C1.72822 3.52638 1.86154 3.36481 1.96154 3.25198C2.05897 3.14171 2.20257 2.98529 2.28205 2.90836C2.35897 2.83143 2.53846 2.66217 2.67949 2.53138C2.82051 2.40316 3.01026 2.2416 3.10256 2.17235C3.19487 2.10311 3.36154 1.98515 3.47436 1.90822C3.58718 1.83129 3.68462 1.76203 3.69231 1.75177C3.7 1.74408 3.72308 1.72871 3.74359 1.72102C3.7641 1.71076 3.81538 1.67997 3.85897 1.65433C3.90256 1.62612 3.97692 1.58254 4.02564 1.55433C4.07436 1.52869 4.22564 1.44917 4.35897 1.37993C4.49487 1.31069 4.67436 1.22349 4.75641 1.18759C4.84103 1.14913 4.99744 1.08502 5.10256 1.04399C5.20769 1.0004 5.3359 0.954231 5.38462 0.93628C5.43333 0.918329 5.54872 0.882436 5.64103 0.856792C5.73333 0.828584 5.8641 0.787552 5.93076 0.767036C5.99999 0.746522 6.07435 0.728571 6.09743 0.728569C6.12051 0.728569 6.19744 0.710617 6.26923 0.690102C6.33846 0.672151 6.50769 0.636238 6.64103 0.615723C6.77436 0.592642 7.00513 0.559304 7.15385 0.538789C7.30513 0.518273 7.6641 0.502886 7.96923 0.500322ZM7.97949 11.5762C7.80514 11.5788 7.76411 11.5865 7.63078 11.6609C7.54873 11.7045 7.44359 11.7891 7.39744 11.8455C7.35128 11.9019 7.29743 11.984 7.27692 12.025C7.25384 12.0661 7.21539 12.1532 7.18975 12.2174C7.15129 12.3097 7.1436 12.3994 7.1436 12.6533C7.14361 12.9046 7.15386 12.9969 7.18975 13.0764C7.21539 13.1329 7.25385 13.2149 7.27436 13.256C7.29488 13.297 7.35898 13.3867 7.41794 13.4534C7.47692 13.5201 7.58974 13.6047 7.66667 13.6432C7.75897 13.6919 7.85898 13.7176 7.96154 13.7252C8.07692 13.7329 8.14615 13.7201 8.23846 13.6816C8.30512 13.6509 8.42565 13.5662 8.50513 13.4919C8.61026 13.3944 8.68207 13.297 8.74617 13.1636C8.81539 13.0251 8.84616 12.9251 8.85642 12.7944C8.86668 12.6943 8.86411 12.5405 8.85129 12.4482C8.83847 12.3558 8.79744 12.2174 8.76154 12.1404C8.72565 12.0635 8.63589 11.9327 8.55897 11.8481C8.48461 11.766 8.36924 11.6711 8.3 11.6378C8.20513 11.589 8.13846 11.5762 7.97949 11.5762ZM8.75641 2.97247C7.54114 2.96221 7.17955 2.96732 7.16667 2.97758C7.15385 2.98527 7.14615 3.98799 7.14871 5.20097C7.15128 7.00379 7.15898 7.44233 7.18975 7.5885C7.21027 7.68852 7.24615 7.88855 7.26923 8.03728C7.29231 8.18602 7.32308 8.37579 7.33847 8.46042C7.35385 8.54504 7.37436 8.69379 7.38462 8.7938C7.39487 8.89381 7.41538 9.0246 7.43076 9.08871C7.44615 9.15282 7.47693 9.30156 7.49745 9.42209C7.52052 9.54262 7.53846 9.68879 7.53846 9.75033C7.53846 9.80932 7.54872 9.88113 7.5641 9.90934C7.57949 9.93756 7.60257 10.0555 7.61538 10.1735C7.63077 10.2889 7.65641 10.3991 7.67435 10.4171C7.69743 10.4427 7.78718 10.4479 8.03846 10.4427L8.37179 10.4351C8.43846 10.0171 8.47179 9.79394 8.48718 9.66571C8.50513 9.54006 8.5282 9.34259 8.53846 9.22975C8.55128 9.11692 8.58205 8.86816 8.61025 8.6784C8.63846 8.48863 8.68462 8.17576 8.71026 7.98599C8.75129 7.67313 8.75641 7.4218 8.75641 5.30613V2.97247Z" fill="#FF9393"/>
</g>
<defs>
<clipPath id="clip0_515_10311">
<rect width="16" height="16" fill="white" transform="translate(0 0.5)"/>
</clipPath>
</defs>
</svg>
