<svg width="16" height="17" viewBox="0 0 16 17" fill="none" xmlns="http://www.w3.org/2000/svg">
<g clip-path="url(#clip0_515_9475)">
<path fill-rule="evenodd" clip-rule="evenodd" d="M7.96923 0.500322C8.31538 0.497758 8.62051 0.510566 8.81538 0.53621C8.97948 0.556726 9.22051 0.592643 9.34615 0.615723C9.4718 0.636239 9.65641 0.672142 9.75641 0.692657C9.85641 0.715737 9.98718 0.746506 10.0513 0.764457C10.1154 0.782408 10.2359 0.818301 10.3205 0.843946C10.4051 0.867025 10.5026 0.900368 10.5385 0.913191C10.5744 0.928578 10.6385 0.949104 10.6795 0.961926C10.7205 0.972184 10.8077 1.00038 10.8718 1.02346C10.9359 1.04654 11.0513 1.09527 11.1282 1.13117C11.2051 1.16707 11.3846 1.25171 11.5256 1.32095C11.6667 1.39019 11.841 1.47995 11.9103 1.51842C11.982 1.55689 12.0744 1.61072 12.1154 1.63893C12.1564 1.66457 12.3026 1.75947 12.4359 1.84667C12.5692 1.93386 12.7667 2.07489 12.8743 2.15696C12.982 2.23902 13.2026 2.42111 13.3615 2.56472C13.5231 2.70576 13.6872 2.86219 13.7282 2.91092C13.7692 2.95965 13.8923 3.09555 14 3.21608C14.1103 3.3366 14.2744 3.5315 14.3641 3.65203C14.4564 3.77256 14.5974 3.97516 14.682 4.10082C14.7641 4.22647 14.8436 4.35213 14.859 4.37522C14.8718 4.3983 14.9026 4.44959 14.9256 4.49062C14.9481 4.52807 15.0241 4.6749 15.099 4.81989L15.1051 4.83169C15.182 4.98042 15.2743 5.17019 15.3102 5.25482C15.3487 5.33945 15.4154 5.49588 15.459 5.60103C15.5026 5.70617 15.5385 5.80877 15.5385 5.82672C15.5385 5.84212 15.5539 5.89597 15.5744 5.94212C15.5923 5.98572 15.6256 6.08315 15.6462 6.15239C15.6692 6.22419 15.7026 6.34472 15.7256 6.42166C15.7461 6.49859 15.782 6.6422 15.8026 6.74221C15.8256 6.84223 15.8615 7.02687 15.8821 7.15253C15.9026 7.27818 15.9385 7.52694 15.9615 7.70389C15.9846 7.88853 16 8.22448 16 8.49887C16 8.76557 15.9821 9.11947 15.959 9.30668C15.9385 9.48875 15.9026 9.73238 15.8821 9.84522C15.8615 9.95805 15.8256 10.1376 15.8026 10.2427C15.782 10.3478 15.7462 10.494 15.7282 10.5633C15.7077 10.6351 15.6718 10.7556 15.6513 10.8325C15.6282 10.9095 15.5949 11.0121 15.5744 11.0582C15.5539 11.1018 15.5385 11.1557 15.5385 11.1736C15.5384 11.1891 15.5026 11.2916 15.459 11.3967C15.4154 11.5019 15.3641 11.6249 15.3462 11.666C15.3256 11.707 15.2513 11.8635 15.182 12.0122C15.1102 12.1609 15.018 12.3404 14.9795 12.4097C14.941 12.4815 14.8872 12.5738 14.859 12.6148C14.8333 12.6559 14.7487 12.7892 14.6692 12.9097C14.5923 13.0303 14.4538 13.2252 14.3615 13.3457C14.2692 13.4662 14.0692 13.7022 13.9179 13.8714C13.7667 14.0407 13.5257 14.2817 13.3821 14.41C13.2385 14.5382 13.0974 14.6613 13.0667 14.6895C13.0384 14.7152 12.9256 14.8023 12.8205 14.8818C12.7154 14.9613 12.5308 15.0921 12.4103 15.1691C12.2897 15.2486 12.1564 15.3332 12.1154 15.3614C12.0744 15.387 11.982 15.4409 11.9103 15.4793C11.841 15.5178 11.6667 15.6076 11.5256 15.6768C11.3846 15.7461 11.2051 15.8307 11.1282 15.8666C11.0513 15.9025 10.9359 15.9512 10.8718 15.9743C10.8077 15.9974 10.7205 16.0256 10.6795 16.0358C10.6385 16.0487 10.5744 16.0692 10.5385 16.0846C10.5026 16.0974 10.4051 16.1307 10.3205 16.1538C10.2359 16.1794 10.1154 16.2154 10.0513 16.2333C9.98718 16.2513 9.84872 16.2846 9.74359 16.3051C9.63846 16.3256 9.45897 16.3615 9.34615 16.382C9.23333 16.4026 8.98974 16.4385 8.80769 16.459C8.62051 16.4821 8.26667 16.5 8 16.5C7.72564 16.5 7.38974 16.4846 7.20513 16.4615C7.02821 16.4385 6.77949 16.4026 6.65385 16.382C6.52821 16.3615 6.34359 16.3256 6.24359 16.3051C6.14359 16.282 6.01282 16.2513 5.94872 16.2333C5.88462 16.2154 5.7641 16.1794 5.67949 16.1538C5.59487 16.1307 5.48717 16.0948 5.44358 16.0743C5.39743 16.0538 5.34358 16.0384 5.3282 16.0384C5.31024 16.0384 5.20768 16.0025 5.10256 15.9589C4.99744 15.9153 4.8641 15.8589 4.80769 15.8332C4.75128 15.8102 4.6 15.7384 4.47436 15.6768C4.34872 15.6153 4.15897 15.5153 4.05897 15.4563C3.95641 15.3947 3.86667 15.346 3.85897 15.346C3.85128 15.346 3.71538 15.2563 3.55897 15.1485C3.4 15.0408 3.19487 14.8947 3.10256 14.8254C3.01026 14.7562 2.82307 14.5946 2.68204 14.4664C2.54358 14.3356 2.41537 14.2228 2.39999 14.2151C2.38458 14.2048 2.25126 14.0612 2.10256 13.8945C1.95385 13.7253 1.82821 13.5842 1.82051 13.5765C1.8128 13.5688 1.74871 13.4893 1.67693 13.397C1.60514 13.3047 1.46155 13.1021 1.35642 12.9482C1.25129 12.7943 1.15642 12.6482 1.14616 12.6277C1.1359 12.6071 1.08718 12.5199 1.03846 12.4353C0.989742 12.3507 0.889752 12.1609 0.817959 12.0122C0.746164 11.8635 0.671795 11.707 0.653846 11.666C0.635895 11.6249 0.584603 11.5019 0.541016 11.3967C0.497439 11.2916 0.461557 11.1891 0.461538 11.1736C0.461538 11.1557 0.446142 11.1018 0.425631 11.0582C0.407682 11.0121 0.374354 10.9172 0.353841 10.8454C0.330764 10.7761 0.29744 10.653 0.274364 10.5761C0.253851 10.4992 0.217953 10.3555 0.197441 10.2555C0.174364 10.1555 0.138451 9.97857 0.117939 9.85804C0.0974256 9.7375 0.0615378 9.49644 0.0384615 9.3195C0.0153852 9.13229 0 8.79122 0 8.49887C2.91036e-07 8.19883 0.0153848 7.87571 0.0384615 7.69107C0.0589745 7.52181 0.0948622 7.27306 0.117939 7.13971C0.138452 7.00635 0.174359 6.83966 0.192308 6.76786C0.21282 6.69862 0.230769 6.61655 0.230769 6.58835C0.230773 6.56013 0.24872 6.48576 0.269231 6.42166C0.289744 6.35754 0.328216 6.23188 0.35642 6.13956C0.384625 6.04725 0.420503 5.93184 0.438452 5.88312C0.456401 5.83439 0.50257 5.70617 0.543595 5.60103C0.58462 5.49589 0.635898 5.37279 0.653846 5.33176C0.674363 5.28815 0.746168 5.13429 0.817959 4.98556C0.889753 4.83682 0.987181 4.64704 1.03846 4.56242C1.08718 4.47779 1.1359 4.3906 1.14616 4.37008C1.15644 4.34954 1.25131 4.20594 1.35642 4.04953C1.46155 3.8931 1.60001 3.6982 1.66411 3.61101C1.72822 3.52638 1.86154 3.36482 1.96154 3.25199C2.05897 3.14172 2.23333 2.95706 2.34615 2.84423C2.45897 2.73139 2.63846 2.56215 2.74359 2.46983C2.84872 2.37494 3.01026 2.2416 3.10256 2.17236C3.19487 2.10312 3.36154 1.98513 3.47436 1.9082C3.58717 1.83127 3.68461 1.76204 3.69231 1.75178C3.7 1.74408 3.72308 1.72869 3.74359 1.721C3.7641 1.71074 3.81539 1.67998 3.85897 1.65433C3.90256 1.62612 3.97692 1.58252 4.02564 1.55431C4.07436 1.52866 4.22564 1.44917 4.35897 1.37993C4.49487 1.31069 4.67436 1.2235 4.75641 1.18759C4.84102 1.14913 4.99744 1.08503 5.10256 1.04399C5.20769 1.0004 5.3359 0.954233 5.38462 0.936281C5.43333 0.91833 5.54872 0.882412 5.64103 0.856768C5.73333 0.828559 5.8641 0.787527 5.93076 0.767012C5.99999 0.746497 6.07435 0.728547 6.09743 0.728545C6.12051 0.728545 6.19744 0.710593 6.26923 0.690078C6.33846 0.672126 6.50769 0.636239 6.64103 0.615723C6.77436 0.592643 7.00513 0.559305 7.15385 0.538789C7.30513 0.518274 7.6641 0.502887 7.96923 0.500322ZM12.2231 5.64207C11.8103 5.22666 11.7205 5.14714 11.6769 5.16251C11.6487 5.17277 11.5026 5.31383 11.3564 5.47283C11.2103 5.63182 11.0718 5.78311 11.0513 5.80363C11.0282 5.82671 10.8795 5.98829 10.7179 6.16523C10.5564 6.33962 10.3949 6.51399 10.359 6.55246C10.3231 6.58836 10.1667 6.75762 10.0103 6.92431C9.85386 7.091 9.65897 7.30386 9.57692 7.39618C9.49487 7.4885 9.35127 7.64235 9.25896 7.7398C9.16666 7.83724 9.07693 7.92956 9.0641 7.94496C9.04872 7.96034 8.9 8.12449 8.73077 8.30656C8.5641 8.48864 8.35127 8.71943 8.25896 8.81688C8.16666 8.91432 8.07693 9.00664 8.0641 9.02203C8.04872 9.03742 7.9 9.20156 7.73077 9.38364C7.5641 9.56571 7.34358 9.80164 7.24614 9.90422C7.14615 10.0068 7.05641 10.0889 7.04615 10.0889C7.03321 10.0888 6.55633 9.67078 5.98205 9.16308C5.40513 8.65275 4.8923 8.19627 4.84102 8.15011C4.78718 8.10139 4.73589 8.06294 4.72564 8.06294C4.71281 8.06295 4.65384 8.11678 4.58974 8.18345C4.52564 8.25012 4.39486 8.39632 4.29743 8.51172C4.19999 8.62455 4.07692 8.76304 4.02051 8.81946C3.96668 8.87586 3.92309 8.93739 3.92308 8.95279C3.92308 8.97074 3.96666 9.02203 4.02051 9.06819C4.07179 9.11178 4.20001 9.22462 4.30514 9.31695C4.41026 9.40927 4.5077 9.49903 4.52309 9.51441C4.53849 9.52982 4.64873 9.62727 4.76923 9.72984C4.88974 9.83242 5.04615 9.9709 5.11538 10.0376C5.18718 10.1043 5.34103 10.2427 5.46154 10.3479C5.58205 10.4504 5.72565 10.5787 5.7795 10.6274C5.83334 10.6761 5.89232 10.73 5.9077 10.7454C5.92311 10.7582 6.03335 10.8557 6.15385 10.9608C6.27436 11.0659 6.43077 11.2044 6.5 11.2711C6.57179 11.3352 6.7282 11.4788 6.85384 11.5865C6.97689 11.6942 7.08969 11.7814 7.10512 11.7814C7.1205 11.7814 8.38206 10.5325 9.9077 9.00408C11.4333 7.47822 12.6897 6.20881 12.7 6.18317C12.7128 6.14982 12.6051 6.02672 12.2231 5.64207Z" fill="#7BFF91"/>
</g>
<defs>
<clipPath id="clip0_515_9475">
<rect width="16" height="16" fill="white" transform="translate(0 0.5)"/>
</clipPath>
</defs>
</svg>
