<svg width="54" height="54" viewBox="0 0 54 54" fill="none" xmlns="http://www.w3.org/2000/svg">
<path d="M51.9626 46.5085C51.9174 46.3958 51.0715 46.3733 47.9707 46.4409C45.8056 46.4748 41.171 46.565 37.664 46.6439C34.157 46.7115 28.6991 46.813 25.5417 46.8694C22.373 46.9371 17.1745 47.0273 13.9832 47.095C10.792 47.1513 6.73238 47.2415 1.78199 47.3769L1.82703 48.3918C1.86086 49.1698 1.92854 49.542 2.13152 49.9705C2.28939 50.2749 2.63896 50.7599 2.92088 51.0305C3.20279 51.3124 3.72159 51.662 4.68008 52.113H48.9969L49.6171 51.8199C49.9554 51.662 50.4628 51.335 50.7222 51.0869C51.0041 50.8388 51.365 50.3313 51.5679 49.9141C51.895 49.2601 51.9288 49.057 51.9852 47.9181C52.0077 47.219 52.0077 46.5762 51.9626 46.5085Z" fill="#030303"/>
<path d="M51.9626 46.5085C51.9174 46.3958 51.0715 46.3733 47.9707 46.4409C45.8056 46.4748 41.171 46.565 37.664 46.6439C34.157 46.7115 28.6991 46.813 25.5417 46.8694C22.373 46.9371 17.1745 47.0273 13.9832 47.095C10.792 47.1513 6.73238 47.2415 1.78199 47.3769L1.82703 48.3918C1.86086 49.1698 1.92854 49.542 2.13152 49.9705C2.28939 50.2749 2.63896 50.7599 2.92088 51.0305C3.20279 51.3124 3.72159 51.662 4.68008 52.113H48.9969L49.6171 51.8199C49.9554 51.662 50.4628 51.335 50.7222 51.0869C51.0041 50.8388 51.365 50.3313 51.5679 49.9141C51.895 49.2601 51.9288 49.057 51.9852 47.9181C52.0077 47.219 52.0077 46.5762 51.9626 46.5085Z" fill="url(#paint0_linear_639_7453)"/>
<path fill-rule="evenodd" clip-rule="evenodd" d="M26.9737 2C25.7221 2 24.3238 2.04515 23.884 2.10153C23.433 2.16919 22.7113 2.28198 22.2715 2.34964C21.8317 2.4173 21.0987 2.5639 20.6364 2.68794C20.1741 2.8007 19.3058 3.08266 18.7194 3.29691C18.133 3.52244 17.2647 3.9058 16.8024 4.15389C16.3401 4.41323 15.6973 4.7966 15.3928 5.01086C15.0883 5.23639 14.4005 5.84539 13.8705 6.37539C13.3405 6.90537 12.7316 7.57064 12.5173 7.85257C12.303 8.13448 11.9196 8.76597 11.6602 9.26214C11.4008 9.75829 11.0964 10.4236 10.9949 10.7281C10.8822 11.0438 10.7469 11.4722 10.6792 11.6865L10.6791 11.6866C10.6227 11.9009 10.5326 13.7051 10.4311 19.2983L8.06305 19.3546C6.61976 19.3997 5.53722 19.4787 5.30029 19.5576C5.08605 19.6365 4.74775 19.7945 4.56731 19.9072C4.38689 20.0313 4.02597 20.347 3.76662 20.6176C3.51854 20.877 3.23667 21.2829 3.13517 21.4972C3.03369 21.7114 2.89835 22.0723 2.83068 22.2866C2.74047 22.5685 2.70668 25.8612 2.70668 44.3886H50.9703V22.3993L50.6884 21.7791C50.5305 21.4408 50.1696 20.8996 49.8765 20.5838C49.5494 20.2455 49.0645 19.8734 47.982 19.366L43.3023 19.3546V16.2536C43.3023 13.863 43.2571 12.9496 43.1218 12.273C43.0203 11.7994 42.7834 10.9987 42.5917 10.5026C42.4113 10.0064 42.1294 9.3749 41.9715 9.09299C41.8137 8.81108 41.498 8.30362 41.2725 7.96534C41.0357 7.62705 40.4492 6.95051 39.9643 6.45435C39.4682 5.96946 38.6901 5.30408 38.2278 4.97705C37.7655 4.65004 36.9536 4.18772 36.4236 3.92836C35.8936 3.68029 35.1832 3.36459 34.8448 3.24053C34.5066 3.10522 33.7623 2.87968 33.2097 2.73309C32.6572 2.5865 31.834 2.4173 31.4055 2.34964C30.977 2.27071 30.3117 2.16926 29.9395 2.11288C29.5674 2.06777 28.2367 2.01128 26.9737 2ZM26.9513 27.034C26.9853 27.0341 27.2897 27.1017 27.6279 27.1806C27.9661 27.2596 28.4172 27.4061 28.6202 27.5076C28.8119 27.6091 29.1614 27.8684 29.387 28.0714C29.6125 28.2631 29.9057 28.5901 30.0297 28.7706C30.1651 28.951 30.3567 29.3682 30.4695 29.6727C30.5822 29.9884 30.6725 30.5522 30.6725 30.9469C30.6725 31.3867 30.5823 31.8829 30.4244 32.3001C30.2553 32.7624 29.9846 33.1459 29.4659 33.6759L28.7442 34.4088C28.7442 37.0701 28.7216 37.2731 28.4961 37.6678C28.3607 37.9046 28.0451 38.2204 27.797 38.367C27.5038 38.5361 27.1655 38.6375 26.8385 38.6375C26.5115 38.6375 26.1732 38.5361 25.88 38.367C25.5755 38.1978 25.35 37.9384 25.1808 37.5776C24.9553 37.1266 24.9215 36.8784 24.9215 35.6831V34.2961C24.0081 33.4954 23.6246 33.0331 23.5006 32.7625C23.3653 32.4919 23.1961 32.131 23.1285 31.9618C23.0608 31.7814 23.0045 31.319 23.0045 30.9131C23.0045 30.5072 23.0608 30.0448 23.1285 29.8756C23.1961 29.6952 23.3653 29.3344 23.5006 29.0638C23.6246 28.7932 23.9517 28.3759 24.2223 28.1391C24.4817 27.891 24.8876 27.5979 25.1244 27.4851C25.35 27.3723 25.8462 27.2145 26.2183 27.1468C26.5904 27.0792 26.9174 27.0228 26.9513 27.034ZM27.064 5.83414C28.0225 5.84541 29.0938 5.90175 29.4321 5.95813C29.7704 6.01452 30.4019 6.11601 30.8417 6.18366C31.2702 6.25133 32.1385 6.47684 32.7587 6.66853C33.3789 6.87151 34.1457 7.15349 34.4502 7.30009C34.7659 7.4467 35.3749 7.78497 35.8034 8.06687C36.2319 8.34879 36.9536 8.93513 37.3821 9.37491C37.9572 9.94999 38.3067 10.4349 38.645 11.1228C38.9043 11.6528 39.175 12.2842 39.2427 12.5323C39.2991 12.7917 39.3555 14.3704 39.3555 16.1746V19.3546H14.3215C14.3215 13.2315 14.3328 12.927 14.5583 12.2504C14.6823 11.8445 14.953 11.2355 15.1447 10.8972C15.3364 10.5589 15.8213 9.92751 16.2272 9.49901C16.6332 9.08178 17.276 8.50661 17.6481 8.24725C18.0202 7.97661 18.7532 7.54816 19.2832 7.30009C19.8132 7.06328 20.7041 6.72498 21.2566 6.56711C21.8092 6.42052 22.5534 6.24009 22.8917 6.17243C23.23 6.11605 23.9179 6.00328 24.414 5.9469C24.9102 5.87924 26.1055 5.82286 27.064 5.83414Z" fill="#030303"/>
<path fill-rule="evenodd" clip-rule="evenodd" d="M26.9737 2C25.7221 2 24.3238 2.04515 23.884 2.10153C23.433 2.16919 22.7113 2.28198 22.2715 2.34964C21.8317 2.4173 21.0987 2.5639 20.6364 2.68794C20.1741 2.8007 19.3058 3.08266 18.7194 3.29691C18.133 3.52244 17.2647 3.9058 16.8024 4.15389C16.3401 4.41323 15.6973 4.7966 15.3928 5.01086C15.0883 5.23639 14.4005 5.84539 13.8705 6.37539C13.3405 6.90537 12.7316 7.57064 12.5173 7.85257C12.303 8.13448 11.9196 8.76597 11.6602 9.26214C11.4008 9.75829 11.0964 10.4236 10.9949 10.7281C10.8822 11.0438 10.7469 11.4722 10.6792 11.6865L10.6791 11.6866C10.6227 11.9009 10.5326 13.7051 10.4311 19.2983L8.06305 19.3546C6.61976 19.3997 5.53722 19.4787 5.30029 19.5576C5.08605 19.6365 4.74775 19.7945 4.56731 19.9072C4.38689 20.0313 4.02597 20.347 3.76662 20.6176C3.51854 20.877 3.23667 21.2829 3.13517 21.4972C3.03369 21.7114 2.89835 22.0723 2.83068 22.2866C2.74047 22.5685 2.70668 25.8612 2.70668 44.3886H50.9703V22.3993L50.6884 21.7791C50.5305 21.4408 50.1696 20.8996 49.8765 20.5838C49.5494 20.2455 49.0645 19.8734 47.982 19.366L43.3023 19.3546V16.2536C43.3023 13.863 43.2571 12.9496 43.1218 12.273C43.0203 11.7994 42.7834 10.9987 42.5917 10.5026C42.4113 10.0064 42.1294 9.3749 41.9715 9.09299C41.8137 8.81108 41.498 8.30362 41.2725 7.96534C41.0357 7.62705 40.4492 6.95051 39.9643 6.45435C39.4682 5.96946 38.6901 5.30408 38.2278 4.97705C37.7655 4.65004 36.9536 4.18772 36.4236 3.92836C35.8936 3.68029 35.1832 3.36459 34.8448 3.24053C34.5066 3.10522 33.7623 2.87968 33.2097 2.73309C32.6572 2.5865 31.834 2.4173 31.4055 2.34964C30.977 2.27071 30.3117 2.16926 29.9395 2.11288C29.5674 2.06777 28.2367 2.01128 26.9737 2ZM26.9513 27.034C26.9853 27.0341 27.2897 27.1017 27.6279 27.1806C27.9661 27.2596 28.4172 27.4061 28.6202 27.5076C28.8119 27.6091 29.1614 27.8684 29.387 28.0714C29.6125 28.2631 29.9057 28.5901 30.0297 28.7706C30.1651 28.951 30.3567 29.3682 30.4695 29.6727C30.5822 29.9884 30.6725 30.5522 30.6725 30.9469C30.6725 31.3867 30.5823 31.8829 30.4244 32.3001C30.2553 32.7624 29.9846 33.1459 29.4659 33.6759L28.7442 34.4088C28.7442 37.0701 28.7216 37.2731 28.4961 37.6678C28.3607 37.9046 28.0451 38.2204 27.797 38.367C27.5038 38.5361 27.1655 38.6375 26.8385 38.6375C26.5115 38.6375 26.1732 38.5361 25.88 38.367C25.5755 38.1978 25.35 37.9384 25.1808 37.5776C24.9553 37.1266 24.9215 36.8784 24.9215 35.6831V34.2961C24.0081 33.4954 23.6246 33.0331 23.5006 32.7625C23.3653 32.4919 23.1961 32.131 23.1285 31.9618C23.0608 31.7814 23.0045 31.319 23.0045 30.9131C23.0045 30.5072 23.0608 30.0448 23.1285 29.8756C23.1961 29.6952 23.3653 29.3344 23.5006 29.0638C23.6246 28.7932 23.9517 28.3759 24.2223 28.1391C24.4817 27.891 24.8876 27.5979 25.1244 27.4851C25.35 27.3723 25.8462 27.2145 26.2183 27.1468C26.5904 27.0792 26.9174 27.0228 26.9513 27.034ZM27.064 5.83414C28.0225 5.84541 29.0938 5.90175 29.4321 5.95813C29.7704 6.01452 30.4019 6.11601 30.8417 6.18366C31.2702 6.25133 32.1385 6.47684 32.7587 6.66853C33.3789 6.87151 34.1457 7.15349 34.4502 7.30009C34.7659 7.4467 35.3749 7.78497 35.8034 8.06687C36.2319 8.34879 36.9536 8.93513 37.3821 9.37491C37.9572 9.94999 38.3067 10.4349 38.645 11.1228C38.9043 11.6528 39.175 12.2842 39.2427 12.5323C39.2991 12.7917 39.3555 14.3704 39.3555 16.1746V19.3546H14.3215C14.3215 13.2315 14.3328 12.927 14.5583 12.2504C14.6823 11.8445 14.953 11.2355 15.1447 10.8972C15.3364 10.5589 15.8213 9.92751 16.2272 9.49901C16.6332 9.08178 17.276 8.50661 17.6481 8.24725C18.0202 7.97661 18.7532 7.54816 19.2832 7.30009C19.8132 7.06328 20.7041 6.72498 21.2566 6.56711C21.8092 6.42052 22.5534 6.24009 22.8917 6.17243C23.23 6.11605 23.9179 6.00328 24.414 5.9469C24.9102 5.87924 26.1055 5.82286 27.064 5.83414Z" fill="url(#paint1_linear_639_7453)"/>
<defs>
<linearGradient id="paint0_linear_639_7453" x1="26.8631" y1="2.66567" x2="26.8631" y2="51.417" gradientUnits="userSpaceOnUse">
<stop stop-color="#7B7B7B"/>
<stop offset="0.316962" stop-color="#EBEBEB"/>
<stop offset="0.510728" stop-color="#7B7B7B"/>
<stop offset="1" stop-color="#EBEBEB"/>
</linearGradient>
<linearGradient id="paint1_linear_639_7453" x1="26.8631" y1="2.66567" x2="26.8631" y2="51.417" gradientUnits="userSpaceOnUse">
<stop stop-color="#7B7B7B"/>
<stop offset="0.316962" stop-color="#EBEBEB"/>
<stop offset="0.510728" stop-color="#7B7B7B"/>
<stop offset="1" stop-color="#EBEBEB"/>
</linearGradient>
</defs>
</svg>
