<svg width="16" height="17" viewBox="0 0 16 17" fill="none" xmlns="http://www.w3.org/2000/svg">
<g clip-path="url(#clip0_681_3595)">
<path d="M7.26154 0.329832C7.26895 0.307607 7.306 0.282912 7.34551 0.277973H7.34304C7.38255 0.275503 7.65173 0.268095 7.94313 0.265625C8.23453 0.265625 8.52594 0.270564 8.59261 0.280442C8.65682 0.29279 8.71362 0.315015 8.72103 0.329832C8.72844 0.347119 8.71609 0.537272 8.69386 0.74965C8.67411 0.964498 8.63953 1.31764 8.61978 1.53496C8.60002 1.75227 8.56792 2.08566 8.54816 2.27581C8.52841 2.46596 8.51112 2.67587 8.50865 2.74502C8.50865 2.8117 8.48889 3.01173 8.42469 3.51057H7.56036L7.51837 3.15249C7.49615 2.95493 7.46404 2.65612 7.44676 2.48572C7.43194 2.31532 7.40971 2.05356 7.39984 1.90538C7.38996 1.75474 7.36773 1.50532 7.35292 1.34974C7.33563 1.19416 7.30599 0.910169 7.28624 0.720016C7.26648 0.529863 7.25413 0.354528 7.26154 0.329832Z" fill="#B2B2B2"/>
<path d="M4.1302 1.26084C4.19687 1.2238 4.33023 1.15218 4.42654 1.10279C4.52038 1.05093 4.60681 1.00895 4.61669 1.00648C4.62904 1.00648 4.65867 1.03611 4.68584 1.0781C4.713 1.12008 4.73523 1.15712 4.73523 1.16453C4.73523 1.17194 4.7698 1.25096 4.81178 1.34233C4.85377 1.43618 4.92538 1.58929 4.96983 1.68313C5.01428 1.77697 5.08096 1.92267 5.118 2.00416C5.15505 2.08566 5.22172 2.23136 5.26617 2.3252C5.31063 2.41904 5.3773 2.56475 5.41435 2.64624C5.45139 2.72773 5.51806 2.87343 5.56252 2.96728C5.60697 3.06112 5.67858 3.21917 5.72303 3.31301C5.76749 3.40685 5.84404 3.57478 5.89837 3.68344C5.95023 3.79209 5.99468 3.89581 5.99468 3.91063C5.99468 3.92792 5.84404 4.03164 5.6613 4.1403C5.47855 4.24896 5.30322 4.33786 5.27111 4.33786C5.2316 4.33786 5.18221 4.29094 5.0859 4.16005C5.01428 4.06127 4.87599 3.86618 4.77721 3.72789C4.6809 3.58959 4.55001 3.40438 4.48828 3.31548C4.42654 3.22658 4.31788 3.071 4.24626 2.97468C4.17391 2.87822 4.07094 2.72993 4.00866 2.64024L4.00425 2.63389C3.94498 2.54499 3.82645 2.37953 3.74495 2.26346C3.66346 2.1474 3.55233 1.98935 3.498 1.91032C3.44614 1.83377 3.40169 1.75474 3.40169 1.73746C3.40416 1.72264 3.45355 1.67572 3.51529 1.63374C3.57702 1.59176 3.65852 1.5399 3.69556 1.51767C3.73013 1.49297 3.78199 1.46334 3.80916 1.44852C3.83632 1.43371 3.89065 1.4016 3.93264 1.37691C3.97215 1.34974 4.06105 1.29788 4.1302 1.26084Z" fill="#B2B2B2"/>
<path d="M11.2523 1.16206C11.2498 1.15465 11.272 1.11514 11.3017 1.07563C11.3313 1.03611 11.3634 1.00401 11.3733 1.00401C11.3832 1.00401 11.5116 1.06822 11.6622 1.14724C11.8104 1.22874 12.0104 1.33986 12.1067 1.39913C12.203 1.45593 12.3487 1.54977 12.4352 1.60657C12.5191 1.6609 12.5883 1.72264 12.5883 1.73746C12.5883 1.75474 12.5488 1.82883 12.5019 1.89798C12.4525 1.96959 12.3438 2.12517 12.2598 2.24371C12.1759 2.36224 12.0623 2.52276 12.008 2.60179C11.9536 2.68081 11.8474 2.82898 11.7734 2.93517C11.6993 3.03889 11.5832 3.19941 11.519 3.29325C11.4548 3.38462 11.319 3.57725 11.2177 3.72048C11.1165 3.86371 10.9757 4.06127 10.9041 4.16005C10.8152 4.28106 10.7584 4.33786 10.7238 4.33786C10.6966 4.33539 10.63 4.30822 10.5756 4.27612C10.5213 4.24155 10.4596 4.20697 10.4398 4.1971C10.4201 4.18722 10.3114 4.12795 10.2003 4.06127C10.0867 3.99706 9.99283 3.93286 9.99036 3.92051C9.98789 3.90569 10.0323 3.7995 10.0916 3.6785C10.1468 3.56802 10.2235 3.40607 10.2697 3.30859L10.2793 3.28831C10.3237 3.19447 10.3904 3.04877 10.4275 2.96728C10.4645 2.88578 10.5337 2.73514 10.5806 2.63389C10.6275 2.53264 10.6991 2.382 10.7362 2.30051C10.7732 2.21901 10.8399 2.07825 10.8819 1.98441C10.9238 1.89304 10.9905 1.7498 11.03 1.66337C11.0695 1.57941 11.1362 1.43618 11.1782 1.34233C11.2202 1.25096 11.2523 1.16947 11.2523 1.16206Z" fill="#B2B2B2"/>
<path d="M1.16925 4.09091C1.17912 4.07115 1.24333 3.96743 1.31248 3.86371C1.38162 3.75752 1.45571 3.67109 1.47547 3.67109C1.49522 3.67109 1.57425 3.71554 1.64833 3.76987C1.71344 3.81544 1.83767 3.90298 1.94058 3.97549L1.98172 4.00447C2.09038 4.08103 2.28053 4.21191 2.40153 4.30082C2.52501 4.38725 2.70282 4.51319 2.79666 4.57987C2.89297 4.64655 3.06583 4.76755 3.18684 4.85152C3.30538 4.93548 3.498 5.07377 3.61901 5.15527C3.73754 5.23923 3.88571 5.34789 3.95239 5.39728C4.03636 5.46149 4.06846 5.50347 4.07093 5.54792C4.07093 5.58249 4.05364 5.62695 4.03142 5.6467C4.00919 5.66646 3.9919 5.69115 3.99437 5.70103C3.99437 5.71338 3.92276 5.84179 3.83385 5.99243C3.74495 6.14307 3.66346 6.26408 3.64864 6.26408C3.63629 6.26408 3.51529 6.21222 3.3844 6.15048C3.25105 6.08628 3.06583 5.99984 2.96952 5.95539C2.87568 5.91094 2.70035 5.82698 2.58181 5.77265C2.4608 5.71585 2.35955 5.6714 2.35214 5.6714C2.34474 5.6714 2.2262 5.61707 2.08791 5.55039C1.94714 5.48371 1.73723 5.38493 1.6187 5.32813C1.49769 5.27381 1.39644 5.22688 1.38903 5.22688C1.38162 5.22688 1.24086 5.16268 1.0754 5.08365C0.907477 5.00463 0.764245 4.93054 0.754367 4.91819C0.744489 4.90338 0.779062 4.80954 0.830922 4.70829C0.882782 4.60704 0.954398 4.46627 0.991441 4.3996C1.02848 4.33045 1.08034 4.24155 1.10751 4.20203C1.1322 4.16005 1.16184 4.11066 1.16925 4.09091Z" fill="#B2B2B2"/>
<path d="M13.9465 4.05139C14.0354 3.98966 14.191 3.881 14.2923 3.80691C14.3935 3.73283 14.4972 3.67356 14.5195 3.67356C14.5466 3.67109 14.5911 3.71554 14.6306 3.78469C14.6701 3.84889 14.7121 3.91804 14.7244 3.94027C14.7392 3.96249 14.7788 4.02423 14.8133 4.07856C14.8479 4.13289 14.9121 4.23908 14.9516 4.31316C14.9936 4.38725 15.08 4.55024 15.2578 4.8935L15.1887 4.94783C15.1516 4.97993 15.1121 5.00463 15.0998 5.00463C15.0899 5.00463 14.9911 5.04661 14.8775 5.10094C14.7664 5.1528 14.5985 5.23182 14.5022 5.27627C14.4059 5.31826 14.2799 5.37752 14.2182 5.40469C14.1564 5.43185 14.0009 5.50594 13.8724 5.56521C13.744 5.62695 13.6033 5.69115 13.5638 5.70844C13.5242 5.7282 13.3835 5.7924 13.2551 5.85167C13.1266 5.91341 12.9538 5.99243 12.8723 6.02948C12.7908 6.06652 12.6476 6.1332 12.5512 6.18012C12.4549 6.22704 12.3636 6.26408 12.3463 6.26408C12.3315 6.26408 12.245 6.14307 12.1561 5.99243C12.0672 5.84179 11.9956 5.71338 11.9956 5.70103C11.9981 5.69115 11.9808 5.66646 11.9586 5.6467C11.9363 5.62695 11.9191 5.58249 11.9191 5.54792C11.9215 5.501 11.961 5.45655 12.0993 5.3553C12.1981 5.28368 12.3562 5.17008 12.4525 5.10341C12.5488 5.03673 12.6599 4.96018 12.6994 4.93054C12.7389 4.90091 12.8501 4.82435 12.9464 4.75768C13.0427 4.691 13.1859 4.58728 13.2649 4.53048C13.3464 4.47121 13.4946 4.36502 13.5983 4.29341C13.702 4.22179 13.8576 4.11313 13.9465 4.05139Z" fill="#B2B2B2"/>
<path d="M0.00610352 8.26439C0.00610352 7.67664 0.0110426 7.56799 0.0431463 7.54576C0.0629024 7.53341 0.129579 7.526 0.191317 7.53341C0.253055 7.54082 0.423452 7.55811 0.574092 7.57293C0.722263 7.58774 1.03095 7.61491 1.25815 7.63466C1.48781 7.65442 1.86565 7.68899 2.09778 7.70875C2.33239 7.73097 2.68059 7.76555 2.87074 7.7853C3.0609 7.80753 3.22388 7.82975 3.23376 7.83469C3.24611 7.83963 3.25352 8.03226 3.25352 8.26439C3.25352 8.49652 3.24611 8.68915 3.23376 8.69409C3.22388 8.69902 3.05596 8.72125 2.8584 8.74348L2.81273 8.74804C2.61118 8.76822 2.30111 8.79925 2.09285 8.81756C1.86812 8.83979 1.49028 8.87436 1.25321 8.89412C1.01614 8.91634 0.704977 8.94351 0.561745 8.95832C0.418513 8.97067 0.253055 8.98796 0.191317 8.99537C0.129579 9.00278 0.0629024 8.99537 0.0431463 8.98302C0.0110426 8.96079 0.00610352 8.85213 0.00610352 8.26439Z" fill="#B2B2B2"/>
<path d="M14.7985 7.63466C15.043 7.61244 15.3591 7.58033 15.5023 7.56305C15.6456 7.54576 15.7962 7.52847 15.8357 7.52847C15.8752 7.526 15.9271 7.53588 15.9468 7.54823C15.9765 7.56799 15.9863 7.66183 15.9913 8.09646C15.9962 8.3854 15.9938 8.70396 15.9863 8.80027C15.974 8.94104 15.9617 8.98302 15.9271 8.99537C15.9049 9.00278 15.7345 8.9929 15.5517 8.97067C15.369 8.95092 15.0356 8.91634 14.8109 8.89659C14.5861 8.87683 14.2083 8.84226 13.9712 8.82003C13.7341 8.80027 13.3612 8.76323 12.7488 8.69656V7.83222L13.1316 7.79024C13.3415 7.76802 13.702 7.73097 13.9342 7.71122C14.1663 7.68899 14.554 7.65442 14.7985 7.63466Z" fill="#B2B2B2"/>
<path d="M2.96952 10.5734C3.06337 10.5289 3.24858 10.4425 3.37699 10.3808C3.50541 10.319 3.62148 10.2672 3.63629 10.2647C3.65111 10.2647 3.68568 10.2968 3.71532 10.3388C3.74742 10.3783 3.77212 10.4178 3.77212 10.4252C3.77212 10.4326 3.82151 10.5215 3.88324 10.6228C3.94498 10.724 3.99437 10.8154 3.99437 10.8253C3.9919 10.8376 4.00919 10.8623 4.03142 10.8821C4.05364 10.9018 4.07093 10.9463 4.07093 10.9809C4.07093 11.0302 4.02401 11.0772 3.84126 11.2081C3.71532 11.2994 3.56715 11.4056 3.51282 11.4451C3.45849 11.4846 3.31279 11.5859 3.19178 11.6723C3.07077 11.7588 2.8905 11.8822 2.79666 11.9489C2.70282 12.0156 2.52254 12.1415 2.40153 12.228C2.28053 12.3169 2.09038 12.4478 1.98172 12.5243L1.93971 12.5539C1.83698 12.6263 1.71326 12.7135 1.64833 12.7589C1.57425 12.8132 1.49522 12.8577 1.47547 12.8577C1.45571 12.8577 1.39891 12.8009 1.35199 12.7293C1.30507 12.6577 1.22851 12.5367 1.18406 12.4626C1.13714 12.3885 1.068 12.2699 1.03095 12.2033C0.99391 12.1341 0.909947 11.981 0.732141 11.6353L0.801288 11.581C0.838331 11.5488 0.877843 11.5242 0.887721 11.5242C0.900069 11.5242 0.99391 11.4846 1.09763 11.4352C1.20382 11.3859 1.35199 11.3192 1.42608 11.2846C1.50016 11.25 1.63105 11.1908 1.71501 11.1513C1.80144 11.1117 1.94467 11.0451 2.03605 11.0031C2.12989 10.9611 2.27065 10.8944 2.35214 10.8574C2.43364 10.8179 2.56699 10.7586 2.64849 10.7216C2.72998 10.6845 2.87321 10.6178 2.96952 10.5734Z" fill="#B2B2B2"/>
<path d="M12.2672 10.3433L12.2747 10.3314C12.3018 10.2943 12.3339 10.2647 12.3463 10.2647C12.3562 10.2647 12.4352 10.2968 12.5191 10.3363C12.5999 10.3709 12.7477 10.4401 12.8614 10.4934L12.8846 10.5042C13.0007 10.5586 13.1711 10.6401 13.2674 10.6845C13.3637 10.7265 13.4847 10.7833 13.5391 10.808C13.5934 10.8327 13.749 10.9043 13.8848 10.9685C14.0206 11.0327 14.2034 11.1167 14.2923 11.1587C14.3812 11.1982 14.4873 11.2476 14.5269 11.2649C14.5664 11.2846 14.7071 11.3488 14.8356 11.4081C14.964 11.4674 15.0924 11.5242 15.1195 11.5316C15.1467 11.539 15.1887 11.5661 15.2134 11.5908C15.2529 11.6328 15.2504 11.6452 15.1492 11.8452C15.0899 11.9613 15.0035 12.1218 14.959 12.2033C14.9146 12.2848 14.8479 12.3959 14.8133 12.4502C14.7788 12.5045 14.7392 12.5663 14.7244 12.5885C14.7121 12.6107 14.6701 12.6799 14.6306 12.7441C14.5935 12.8058 14.5466 12.8577 14.5269 12.8577C14.5071 12.8577 14.4256 12.8132 14.3466 12.7589C14.2754 12.7107 14.1337 12.6112 14.0208 12.5319L13.9959 12.5144C13.8798 12.4329 13.7144 12.3169 13.6255 12.2551C13.5366 12.1959 13.3835 12.0872 13.2847 12.0131C13.1884 11.9415 13.0353 11.8328 12.9464 11.7711C12.8575 11.7094 12.6698 11.581 12.5315 11.4822C12.3932 11.3834 12.1981 11.2451 12.0993 11.1735C11.9512 11.0648 11.9215 11.0302 11.9215 10.9734C11.9215 10.9364 11.9339 10.9018 11.9462 10.8944C11.9586 10.887 11.9808 10.8574 11.9956 10.8253C12.008 10.7956 12.0598 10.7043 12.1067 10.6228C12.1537 10.5413 12.2006 10.4573 12.2105 10.4376C12.2194 10.4198 12.2443 10.3799 12.2672 10.3433Z" fill="#B2B2B2"/>
<path d="M4.77227 12.8083C4.87352 12.6651 5.01428 12.4675 5.08343 12.3687C5.17974 12.2354 5.22666 12.1909 5.27111 12.1909C5.30322 12.1909 5.402 12.2378 5.49337 12.2922C5.58721 12.349 5.67858 12.4008 5.69834 12.4107C5.7181 12.4181 5.79465 12.4626 5.8638 12.507C5.93541 12.549 5.99468 12.5984 5.99468 12.6107C5.99468 12.6231 5.9527 12.7268 5.89837 12.8379C5.84651 12.9515 5.76749 13.1195 5.72303 13.2158C5.67858 13.3121 5.60697 13.4652 5.56252 13.5615C5.51806 13.6578 5.45139 13.801 5.41435 13.8825C5.3773 13.964 5.31063 14.1073 5.26617 14.2036C5.22172 14.2999 5.15505 14.4431 5.118 14.5246C5.08096 14.6061 5.01428 14.7493 4.96983 14.8457C4.92538 14.942 4.85377 15.0926 4.81178 15.184C4.7698 15.2778 4.73523 15.3593 4.73523 15.3692C4.73523 15.3815 4.71053 15.421 4.6241 15.5272L4.3895 15.4062C4.26108 15.3396 4.11538 15.2605 4.06846 15.2309C4.02154 15.2037 3.9598 15.1692 3.93264 15.1543C3.90547 15.1395 3.84867 15.1074 3.80916 15.0803C3.76718 15.0531 3.71779 15.0235 3.69803 15.0136C3.67827 15.0062 3.62148 14.9691 3.57456 14.9321C3.52763 14.895 3.46837 14.858 3.44367 14.8506C3.42145 14.8407 3.40169 14.816 3.40169 14.7963C3.40169 14.7765 3.44861 14.6901 3.50788 14.6036C3.56715 14.5197 3.65358 14.3962 3.7005 14.3271C3.74742 14.2604 3.79434 14.1912 3.80916 14.1764C3.82151 14.1591 3.88324 14.0727 3.94498 13.9838C4.00672 13.8924 4.12279 13.7294 4.20675 13.6158C4.28825 13.5047 4.36233 13.401 4.36727 13.3862C4.37221 13.3714 4.42407 13.2948 4.48334 13.2133C4.54261 13.1343 4.67349 12.9515 4.77227 12.8083Z" fill="#B2B2B2"/>
<path d="M10.5559 12.265C10.5682 12.2675 10.5905 12.2502 10.6102 12.228C10.6275 12.2082 10.6719 12.1909 10.709 12.1909C10.7608 12.1909 10.7979 12.2255 10.909 12.3786C10.9831 12.4799 11.1066 12.6503 11.1807 12.754C11.2572 12.8577 11.3609 13.0059 11.4103 13.0799C11.4622 13.154 11.5758 13.3146 11.6622 13.438C11.7487 13.5615 11.882 13.7492 11.9586 13.8578C12.0351 13.9665 12.1685 14.1542 12.2549 14.2777C12.3413 14.4011 12.4525 14.5592 12.5019 14.6283C12.5488 14.6999 12.5883 14.774 12.5883 14.7889C12.5883 14.8061 12.5191 14.8679 12.4352 14.9222C12.3487 14.979 12.208 15.0679 12.1191 15.1222C12.0302 15.1766 11.8252 15.2902 11.3659 15.5272L11.3116 15.4581C11.2794 15.421 11.2548 15.3766 11.2548 15.3643C11.2548 15.3519 11.2202 15.2704 11.1807 15.184C11.1387 15.1 11.072 14.9593 11.0325 14.8703C10.994 14.7889 10.9369 14.6639 10.8972 14.5771L10.8868 14.5542C10.8473 14.4703 10.7806 14.3246 10.7362 14.2283C10.6917 14.132 10.625 13.9887 10.588 13.9072C10.5509 13.8257 10.4793 13.6751 10.4324 13.5739C10.3855 13.4726 10.3114 13.3121 10.2669 13.2158C10.2225 13.1195 10.1435 12.9515 10.0916 12.8379C10.0373 12.7268 9.9953 12.6231 9.9953 12.6107C9.9953 12.5984 10.1163 12.5144 10.2669 12.4255C10.4151 12.3366 10.546 12.265 10.5559 12.265Z" fill="#B2B2B2"/>
<path d="M7.51837 13.4133C7.53813 13.2084 7.56283 13.0355 7.56776 13.0231C7.5727 13.0133 7.77026 13.0083 8.42716 13.0182L8.46914 13.3269C8.49136 13.4973 8.51112 13.6973 8.51112 13.7714C8.51112 13.8455 8.52841 14.0579 8.55063 14.2406C8.57039 14.4234 8.60249 14.774 8.62472 15.0185C8.64447 15.263 8.67905 15.6186 8.70127 15.8088C8.72103 15.9989 8.73338 16.1718 8.72597 16.1915C8.71609 16.2138 8.66176 16.236 8.59508 16.2483C8.52841 16.2582 8.25923 16.2656 7.99499 16.2656C7.73075 16.2656 7.46158 16.2582 7.3949 16.2483C7.32822 16.236 7.27389 16.2138 7.26401 16.1915C7.2566 16.1718 7.26895 15.9989 7.28871 15.8088C7.31093 15.6186 7.34551 15.263 7.36526 15.0185C7.38749 14.774 7.41959 14.3962 7.44182 14.1789C7.46157 13.9616 7.49615 13.6158 7.51837 13.4133Z" fill="#B2B2B2"/>
</g>
<defs>
<clipPath id="clip0_681_3595">
<rect width="16" height="16" fill="white" transform="translate(0 0.265625)"/>
</clipPath>
</defs>
</svg>
