<svg width="17" height="16" viewBox="0 0 17 16" fill="none" xmlns="http://www.w3.org/2000/svg">
<g clip-path="url(#clip0_488_2996)">
<path d="M8.5 15.5C12.6421 15.5 16 12.1421 16 8C16 3.85786 12.6421 0.5 8.5 0.5C4.35786 0.5 1 3.85786 1 8C1 12.1421 4.35786 15.5 8.5 15.5Z" fill="#2775C9"/>
<path d="M8.5 13.625C5.39309 13.625 2.875 11.1069 2.875 8C2.875 4.89309 5.39309 2.375 8.5 2.375C11.6069 2.375 14.125 4.89309 14.125 8C14.125 9.49184 13.5324 10.9226 12.4775 11.9775C11.4226 13.0324 9.99184 13.625 8.5 13.625ZM8.16489 5.91277C7.85713 5.92803 7.56618 6.05779 7.34917 6.27656C7.13217 6.49534 7.00478 6.78733 6.99202 7.09521C6.99202 7.67447 7.34628 8.05266 8.09787 8.21064L8.62447 8.33511C9.1367 8.45479 9.34734 8.62713 9.34734 8.91915C9.34734 9.21117 8.97872 9.4984 8.5 9.4984C8.32996 9.514 8.15896 9.48141 8.00657 9.40437C7.85418 9.32732 7.72656 9.20894 7.6383 9.06277C7.61215 9.0073 7.57087 8.96035 7.5192 8.92732C7.46754 8.89429 7.4076 8.87652 7.34628 8.87606H7.06383C7.04211 8.88009 7.0214 8.88837 7.00289 8.90042C6.98438 8.91248 6.96844 8.92808 6.95598 8.94632C6.94352 8.96456 6.9348 8.98509 6.9303 9.00671C6.92581 9.02834 6.92563 9.05065 6.92979 9.07234C6.99859 9.35314 7.15855 9.6032 7.38464 9.78338C7.61073 9.96356 7.89018 10.0637 8.17926 10.0681V10.4702C8.17926 10.5597 8.21481 10.6456 8.27811 10.7089C8.3414 10.7722 8.42724 10.8077 8.51676 10.8077C8.60627 10.8077 8.69211 10.7722 8.7554 10.7089C8.8187 10.6456 8.85426 10.5597 8.85426 10.4702V10.0633C9.18112 10.0596 9.49362 9.92842 9.72521 9.69773C9.9568 9.46703 10.0892 9.15504 10.0941 8.82819C10.0941 8.22021 9.74468 7.87074 8.91649 7.69362L8.43777 7.5883C7.95904 7.46862 7.73404 7.31064 7.73404 7.04255C7.73404 6.77447 8.02128 6.47766 8.5 6.47766C8.65077 6.46191 8.80287 6.49015 8.93794 6.55896C9.07301 6.62777 9.18527 6.73421 9.26117 6.86543C9.29194 6.93096 9.34065 6.98642 9.40165 7.0254C9.46266 7.06437 9.53346 7.08526 9.60585 7.08564H9.83085C9.88201 7.07313 9.92621 7.04104 9.95396 6.99628C9.98171 6.95152 9.99079 6.89766 9.97926 6.84628C9.9144 6.58702 9.76932 6.35486 9.56472 6.18293C9.36012 6.011 9.10645 5.90807 8.83989 5.88883V5.55851C8.83989 5.469 8.80434 5.38316 8.74104 5.31986C8.67775 5.25657 8.5919 5.22101 8.50239 5.22101C8.41288 5.22101 8.32704 5.25657 8.26375 5.31986C8.20045 5.38316 8.16489 5.469 8.16489 5.55851V5.91277ZM4.28245 8C4.283 8.88184 4.56057 9.74123 5.07597 10.4568C5.59137 11.1723 6.31855 11.7079 7.15479 11.9878H7.22181C7.27894 11.9878 7.33374 11.9651 7.37414 11.9247C7.41454 11.8843 7.43723 11.8295 7.43723 11.7723V11.6718C7.43739 11.5827 7.41109 11.4955 7.36166 11.4214C7.31223 11.3472 7.24189 11.2894 7.15957 11.2553C6.50832 10.9925 5.95048 10.541 5.55766 9.95879C5.16484 9.37662 4.95496 8.69034 4.95496 7.98803C4.95496 7.28573 5.16484 6.59945 5.55766 6.01728C5.95048 5.43511 6.50832 4.98361 7.15957 4.72074C7.24151 4.68746 7.31168 4.63053 7.36114 4.5572C7.41059 4.48388 7.43708 4.39748 7.43723 4.30904V4.19894C7.43754 4.16661 7.43005 4.13468 7.4154 4.10586C7.40074 4.07705 7.37935 4.05219 7.35305 4.0334C7.32674 4.0146 7.29629 4.00243 7.26427 3.99792C7.23226 3.9934 7.19963 3.99667 7.16915 4.00745C6.32945 4.28515 5.5986 4.82037 5.0804 5.53709C4.5622 6.2538 4.283 7.11557 4.28245 8ZM12.7176 8C12.716 7.11898 12.438 6.26066 11.9226 5.54607C11.4073 4.83148 10.6807 4.29666 9.84521 4.01702H9.7734C9.71373 4.01702 9.6565 4.04073 9.61431 4.08292C9.57211 4.12512 9.5484 4.18235 9.5484 4.24202V4.31383C9.55034 4.40616 9.57893 4.49596 9.63075 4.57241C9.68256 4.64886 9.75538 4.70868 9.84043 4.74468C10.4902 5.00832 11.0465 5.45984 11.4382 6.04147C11.8299 6.62309 12.0391 7.30836 12.0391 8.00957C12.0391 8.71079 11.8299 9.39606 11.4382 9.97768C11.0465 10.5593 10.4902 11.0108 9.84043 11.2745C9.757 11.3108 9.68567 11.3702 9.6348 11.4457C9.58393 11.5212 9.55562 11.6096 9.55319 11.7005V11.7819C9.5536 11.8174 9.5624 11.8523 9.57887 11.8837C9.59534 11.9152 9.61901 11.9423 9.64796 11.9628C9.6769 11.9834 9.7103 11.9968 9.74541 12.0019C9.78052 12.0071 9.81636 12.0039 9.85 11.9926C10.6861 11.7116 11.4128 11.175 11.9274 10.4585C12.4419 9.74209 12.7183 8.88207 12.7176 8Z" fill="white"/>
</g>
<defs>
<clipPath id="clip0_488_2996">
<rect width="15" height="15" fill="white" transform="translate(1 0.5)"/>
</clipPath>
</defs>
</svg>
