<svg width="20" height="20" viewBox="0 0 20 20" fill="none" xmlns="http://www.w3.org/2000/svg">
<path d="M10.0005 2.5C11.4835 2.50009 12.9333 2.9398 14.1665 3.76367C15.3998 4.58778 16.3615 5.75944 16.9292 7.12988C17.4968 8.50023 17.6452 10.0081 17.3559 11.4629C17.0747 12.8769 16.3921 14.1798 15.3911 15.2148C15.3431 15.2644 15.2631 15.2637 15.2143 15.2148L11.8549 11.8555C11.8061 11.8071 11.7272 11.8073 11.6762 11.8535C11.2329 12.2548 10.6455 12.4999 10.0005 12.5C9.35494 12.5 8.76635 12.2551 8.32272 11.8535C8.27153 11.8072 8.19185 11.8076 8.14303 11.8564L4.78561 15.2148C4.73681 15.2637 4.65686 15.2644 4.60886 15.2148C3.60779 14.1798 2.92526 12.8768 2.64401 11.4629C2.35471 10.0081 2.50317 8.50022 3.07077 7.12988C3.63843 5.75944 4.6001 4.58778 5.83346 3.76367C7.06677 2.93969 8.51721 2.5 10.0005 2.5ZM14.8813 7.07129C14.6446 6.67699 14.1332 6.54897 13.7387 6.78516L9.57175 9.28516C9.17714 9.52192 9.04894 10.0341 9.28561 10.4287C9.52243 10.8232 10.0346 10.9515 10.4292 10.7148L14.5962 8.21484C14.9904 7.97798 15.1179 7.46577 14.8813 7.07129Z" fill="#FF6666"/>
</svg>
